<mxfile host="app.diagrams.net" modified="2023-09-14T00:29:32.942Z" agent="Mozilla/5.0 (Windows NT 10.0; Win64; x64) AppleWebKit/537.36 (KHTML, like Gecko) Chrome/115.0.0.0 Safari/537.36 OPR/101.0.0.0" etag="c4T-Ikjc54Wr5T7ztBgZ" version="21.7.2" type="device">
  <diagram name="Página-1" id="ZKmiamIRYfWgfsldtudF">
    <mxGraphModel dx="1678" dy="892" grid="1" gridSize="10" guides="1" tooltips="1" connect="1" arrows="1" fold="1" page="1" pageScale="1" pageWidth="1920" pageHeight="1200" math="0" shadow="0">
      <root>
        <mxCell id="0" />
        <mxCell id="1" parent="0" />
        <mxCell id="aqb9V1pjNic0fwWnrqPl-4" style="edgeStyle=orthogonalEdgeStyle;rounded=0;orthogonalLoop=1;jettySize=auto;html=1;" edge="1" parent="1" source="aqb9V1pjNic0fwWnrqPl-1">
          <mxGeometry relative="1" as="geometry">
            <mxPoint x="145" y="160" as="targetPoint" />
          </mxGeometry>
        </mxCell>
        <mxCell id="aqb9V1pjNic0fwWnrqPl-1" value="" style="ellipse;html=1;shape=endState;" vertex="1" parent="1">
          <mxGeometry x="130" y="70" width="30" height="30" as="geometry" />
        </mxCell>
        <mxCell id="aqb9V1pjNic0fwWnrqPl-8" style="edgeStyle=orthogonalEdgeStyle;rounded=0;orthogonalLoop=1;jettySize=auto;html=1;jumpStyle=arc;" edge="1" parent="1" source="aqb9V1pjNic0fwWnrqPl-5" target="aqb9V1pjNic0fwWnrqPl-7">
          <mxGeometry relative="1" as="geometry" />
        </mxCell>
        <mxCell id="aqb9V1pjNic0fwWnrqPl-5" value="escolher opção de emprestimo no sistema" style="rounded=1;whiteSpace=wrap;html=1;arcSize=20;" vertex="1" parent="1">
          <mxGeometry x="85" y="160" width="120" height="60" as="geometry" />
        </mxCell>
        <mxCell id="aqb9V1pjNic0fwWnrqPl-12" style="edgeStyle=orthogonalEdgeStyle;rounded=0;orthogonalLoop=1;jettySize=auto;html=1;" edge="1" parent="1" source="aqb9V1pjNic0fwWnrqPl-7" target="aqb9V1pjNic0fwWnrqPl-11">
          <mxGeometry relative="1" as="geometry" />
        </mxCell>
        <mxCell id="aqb9V1pjNic0fwWnrqPl-7" value="inserir&amp;nbsp; ISBN no livro e ID do leitor" style="rounded=1;whiteSpace=wrap;html=1;" vertex="1" parent="1">
          <mxGeometry x="85" y="322.5" width="120" height="60" as="geometry" />
        </mxCell>
        <mxCell id="aqb9V1pjNic0fwWnrqPl-15" style="edgeStyle=orthogonalEdgeStyle;rounded=0;orthogonalLoop=1;jettySize=auto;html=1;entryX=0.5;entryY=1;entryDx=0;entryDy=0;" edge="1" parent="1" source="aqb9V1pjNic0fwWnrqPl-11" target="aqb9V1pjNic0fwWnrqPl-13">
          <mxGeometry relative="1" as="geometry">
            <mxPoint x="390" y="260" as="targetPoint" />
          </mxGeometry>
        </mxCell>
        <mxCell id="aqb9V1pjNic0fwWnrqPl-22" style="edgeStyle=orthogonalEdgeStyle;rounded=0;orthogonalLoop=1;jettySize=auto;html=1;entryX=0.5;entryY=0;entryDx=0;entryDy=0;" edge="1" parent="1" source="aqb9V1pjNic0fwWnrqPl-11" target="aqb9V1pjNic0fwWnrqPl-21">
          <mxGeometry relative="1" as="geometry" />
        </mxCell>
        <mxCell id="aqb9V1pjNic0fwWnrqPl-11" value="leitor registrado?" style="rhombus;whiteSpace=wrap;html=1;" vertex="1" parent="1">
          <mxGeometry x="340" y="325" width="140" height="55" as="geometry" />
        </mxCell>
        <mxCell id="aqb9V1pjNic0fwWnrqPl-18" style="edgeStyle=orthogonalEdgeStyle;rounded=0;orthogonalLoop=1;jettySize=auto;html=1;entryX=1;entryY=0.5;entryDx=0;entryDy=0;" edge="1" parent="1" source="aqb9V1pjNic0fwWnrqPl-13" target="aqb9V1pjNic0fwWnrqPl-16">
          <mxGeometry relative="1" as="geometry" />
        </mxCell>
        <mxCell id="aqb9V1pjNic0fwWnrqPl-13" value="registrar leitor" style="rounded=1;whiteSpace=wrap;html=1;" vertex="1" parent="1">
          <mxGeometry x="550" y="210" width="120" height="60" as="geometry" />
        </mxCell>
        <mxCell id="aqb9V1pjNic0fwWnrqPl-19" style="edgeStyle=orthogonalEdgeStyle;rounded=0;orthogonalLoop=1;jettySize=auto;html=1;" edge="1" parent="1" source="aqb9V1pjNic0fwWnrqPl-16" target="aqb9V1pjNic0fwWnrqPl-5">
          <mxGeometry relative="1" as="geometry" />
        </mxCell>
        <mxCell id="aqb9V1pjNic0fwWnrqPl-34" style="edgeStyle=orthogonalEdgeStyle;rounded=0;orthogonalLoop=1;jettySize=auto;html=1;entryX=0.5;entryY=0;entryDx=0;entryDy=0;" edge="1" parent="1">
          <mxGeometry relative="1" as="geometry">
            <mxPoint x="390" y="189.9999999999999" as="sourcePoint" />
            <mxPoint x="682.5" y="388" as="targetPoint" />
            <Array as="points">
              <mxPoint x="390.5" y="160" />
              <mxPoint x="767.5" y="160" />
            </Array>
          </mxGeometry>
        </mxCell>
        <mxCell id="aqb9V1pjNic0fwWnrqPl-16" value="tentar novamente" style="rhombus;whiteSpace=wrap;html=1;" vertex="1" parent="1">
          <mxGeometry x="315" y="180" width="125" height="60" as="geometry" />
        </mxCell>
        <mxCell id="aqb9V1pjNic0fwWnrqPl-29" style="edgeStyle=orthogonalEdgeStyle;rounded=0;orthogonalLoop=1;jettySize=auto;html=1;" edge="1" parent="1" source="aqb9V1pjNic0fwWnrqPl-20" target="aqb9V1pjNic0fwWnrqPl-28">
          <mxGeometry relative="1" as="geometry" />
        </mxCell>
        <mxCell id="aqb9V1pjNic0fwWnrqPl-20" value="realizar emprestimo" style="rounded=1;whiteSpace=wrap;html=1;" vertex="1" parent="1">
          <mxGeometry x="340" y="580" width="130" height="60" as="geometry" />
        </mxCell>
        <mxCell id="aqb9V1pjNic0fwWnrqPl-24" style="edgeStyle=orthogonalEdgeStyle;rounded=0;orthogonalLoop=1;jettySize=auto;html=1;entryX=0.538;entryY=0.005;entryDx=0;entryDy=0;entryPerimeter=0;" edge="1" parent="1" source="aqb9V1pjNic0fwWnrqPl-21" target="aqb9V1pjNic0fwWnrqPl-20">
          <mxGeometry relative="1" as="geometry" />
        </mxCell>
        <mxCell id="aqb9V1pjNic0fwWnrqPl-26" style="edgeStyle=orthogonalEdgeStyle;rounded=0;orthogonalLoop=1;jettySize=auto;html=1;entryX=1;entryY=0.5;entryDx=0;entryDy=0;" edge="1" parent="1" source="aqb9V1pjNic0fwWnrqPl-21" target="aqb9V1pjNic0fwWnrqPl-25">
          <mxGeometry relative="1" as="geometry" />
        </mxCell>
        <mxCell id="aqb9V1pjNic0fwWnrqPl-21" value="livro disponivel?" style="rhombus;whiteSpace=wrap;html=1;" vertex="1" parent="1">
          <mxGeometry x="340" y="455" width="140" height="50" as="geometry" />
        </mxCell>
        <mxCell id="aqb9V1pjNic0fwWnrqPl-27" style="edgeStyle=orthogonalEdgeStyle;rounded=0;orthogonalLoop=1;jettySize=auto;html=1;entryX=0.52;entryY=1;entryDx=0;entryDy=0;entryPerimeter=0;jumpStyle=arc;" edge="1" parent="1" target="aqb9V1pjNic0fwWnrqPl-16">
          <mxGeometry relative="1" as="geometry">
            <mxPoint x="90" y="490" as="sourcePoint" />
            <mxPoint x="380" y="250" as="targetPoint" />
            <Array as="points">
              <mxPoint x="30" y="490" />
              <mxPoint x="30" y="260" />
              <mxPoint x="380" y="260" />
            </Array>
          </mxGeometry>
        </mxCell>
        <mxCell id="aqb9V1pjNic0fwWnrqPl-25" value="retornar mensagem" style="rounded=1;whiteSpace=wrap;html=1;" vertex="1" parent="1">
          <mxGeometry x="90" y="450" width="120" height="60" as="geometry" />
        </mxCell>
        <mxCell id="aqb9V1pjNic0fwWnrqPl-31" style="edgeStyle=orthogonalEdgeStyle;rounded=0;orthogonalLoop=1;jettySize=auto;html=1;entryX=0.5;entryY=1;entryDx=0;entryDy=0;" edge="1" parent="1" source="aqb9V1pjNic0fwWnrqPl-28" target="aqb9V1pjNic0fwWnrqPl-30">
          <mxGeometry relative="1" as="geometry" />
        </mxCell>
        <mxCell id="aqb9V1pjNic0fwWnrqPl-28" value="gravar emprestimo" style="rounded=1;whiteSpace=wrap;html=1;" vertex="1" parent="1">
          <mxGeometry x="610" y="580" width="120" height="60" as="geometry" />
        </mxCell>
        <mxCell id="aqb9V1pjNic0fwWnrqPl-30" value="" style="ellipse;html=1;shape=endState;fillColor=#000000;strokeColor=#ff0000;" vertex="1" parent="1">
          <mxGeometry x="655" y="378" width="30" height="30" as="geometry" />
        </mxCell>
        <mxCell id="aqb9V1pjNic0fwWnrqPl-35" value="s" style="text;html=1;align=center;verticalAlign=middle;resizable=0;points=[];autosize=1;strokeColor=none;fillColor=none;" vertex="1" parent="1">
          <mxGeometry x="285" y="188" width="30" height="30" as="geometry" />
        </mxCell>
        <mxCell id="aqb9V1pjNic0fwWnrqPl-36" value="n" style="text;html=1;align=center;verticalAlign=middle;resizable=0;points=[];autosize=1;strokeColor=none;fillColor=none;" vertex="1" parent="1">
          <mxGeometry x="315" y="455" width="30" height="30" as="geometry" />
        </mxCell>
        <mxCell id="aqb9V1pjNic0fwWnrqPl-37" value="n" style="text;html=1;align=center;verticalAlign=middle;resizable=0;points=[];autosize=1;strokeColor=none;fillColor=none;" vertex="1" parent="1">
          <mxGeometry x="370" y="158" width="30" height="30" as="geometry" />
        </mxCell>
        <mxCell id="aqb9V1pjNic0fwWnrqPl-39" value="n" style="text;html=1;align=center;verticalAlign=middle;resizable=0;points=[];autosize=1;strokeColor=none;fillColor=none;" vertex="1" parent="1">
          <mxGeometry x="470" y="325" width="30" height="30" as="geometry" />
        </mxCell>
        <mxCell id="aqb9V1pjNic0fwWnrqPl-40" value="s" style="text;html=1;align=center;verticalAlign=middle;resizable=0;points=[];autosize=1;strokeColor=none;fillColor=none;" vertex="1" parent="1">
          <mxGeometry x="405" y="378" width="30" height="30" as="geometry" />
        </mxCell>
        <mxCell id="aqb9V1pjNic0fwWnrqPl-41" value="s" style="text;html=1;align=center;verticalAlign=middle;resizable=0;points=[];autosize=1;strokeColor=none;fillColor=none;" vertex="1" parent="1">
          <mxGeometry x="405" y="505" width="30" height="30" as="geometry" />
        </mxCell>
      </root>
    </mxGraphModel>
  </diagram>
</mxfile>
